<svg xmlns="http://www.w3.org/2000/svg" viewBox="0 0 64 64">
  <defs>
    <linearGradient id="grad1" x1="0%" y1="0%" x2="100%" y2="100%">
      <stop offset="0%" style="stop-color:#0078D4;stop-opacity:1" />
      <stop offset="100%" style="stop-color:#00BCF2;stop-opacity:1" />
    </linearGradient>
  </defs>
  <!-- Gear/Cog representing orchestration -->
  <circle cx="32" cy="32" r="30" fill="url(#grad1)"/>
  <path d="M32 18 L36 22 L42 20 L44 26 L50 28 L48 34 L52 38 L46 40 L44 46 L38 44 L32 48 L26 44 L20 46 L18 40 L12 38 L16 34 L14 28 L20 26 L22 20 L28 22 Z" fill="white" opacity="0.9"/>
  <circle cx="32" cy="32" r="8" fill="url(#grad1)"/>
  <!-- Connected nodes representing workflow -->
  <circle cx="32" cy="14" r="3" fill="white" opacity="0.8"/>
  <circle cx="48" cy="32" r="3" fill="white" opacity="0.8"/>
  <circle cx="32" cy="50" r="3" fill="white" opacity="0.8"/>
  <circle cx="16" cy="32" r="3" fill="white" opacity="0.8"/>
</svg>